<svg xmlns="http://www.w3.org/2000/svg" viewBox="0 0 512 512" width="512" height="512">
  <defs>
    <linearGradient id="bg" x1="0" y1="0" x2="1" y2="1">
      <stop offset="0%" stop-color="#0d1117"/>
      <stop offset="100%" stop-color="#010409"/>
    </linearGradient>
    <linearGradient id="metal" x1="0" y1="0" x2="1" y2="1">
      <stop offset="0%" stop-color="#8b949e"/>
      <stop offset="40%" stop-color="#c9d1d9"/>
      <stop offset="100%" stop-color="#6e7681"/>
    </linearGradient>
    <radialGradient id="eyeGlow" cx="50%" cy="50%" r="50%">
      <stop offset="0%" stop-color="#3fb950"/>
      <stop offset="60%" stop-color="#2ea043"/>
      <stop offset="100%" stop-color="#1f3a2f"/>
    </radialGradient>
  </defs>
  <rect width="512" height="512" rx="88" fill="url(#bg)" stroke="#30363d" stroke-width="2"/>
  <g id="robot-half">
    <path d="M 160 110 L 256 110 L 256 85 L 160 85 Q 130 85 130 110 L 130 160 Q 130 185 110 200 Q 90 215 90 240 L 90 270 Q 90 290 100 305 L 115 330 L 115 370 L 200 370 L 200 330 Q 200 320 210 315 L 256 315 L 256 110 Z" fill="url(#metal)" opacity="0.9"/>
    <path d="M 160 110 L 200 110 L 200 160 L 160 160 Z" fill="#e6edf3" opacity="0.15"/>
    <path d="M 130 130 L 150 130 L 150 150 L 130 150 Z" fill="#e6edf3" opacity="0.1"/>
    <ellipse cx="185" cy="175" rx="20" ry="14" fill="#0d1117" stroke="#58a6ff" stroke-width="2.5"/>
    <ellipse cx="185" cy="175" rx="9" ry="7" fill="url(#eyeGlow)"/>
    <ellipse cx="185" cy="175" rx="3" ry="3" fill="#7ee787"/>
    <line x1="160" y1="250" x2="215" y2="250" stroke="#58a6ff" stroke-width="2.5" stroke-linecap="round"/>
    <line x1="165" y1="262" x2="210" y2="262" stroke="#484f58" stroke-width="2" stroke-linecap="round"/>
    <line x1="170" y1="274" x2="205" y2="274" stroke="#484f58" stroke-width="2" stroke-linecap="round"/>
    <line x1="175" y1="85" x2="175" y2="55" stroke="#58a6ff" stroke-width="2.5" stroke-linecap="round"/>
    <circle cx="175" cy="50" r="5" fill="#3fb950"/>
  </g>
  <g font-family="'Consolas', 'Courier New', monospace" fill="#7ee787" font-weight="bold" opacity="0.92">
    <text x="220" y="60" font-size="12" opacity="0.5">{ listen }</text>
    <text x="312" y="52" font-size="10" opacity="0.35">async</text>
    <text x="262" y="105" font-size="15">import</text>
    <text x="325" y="105" font-size="10" opacity="0.5">Agent</text>
    <text x="268" y="130" font-size="13">const ai</text>
    <text x="340" y="130" font-size="10" opacity="0.5">= create()</text>
    <text x="270" y="155" font-size="14">function</text>
    <text x="358" y="155" font-size="10" opacity="0.5">*</text>
    <text x="262" y="182" font-size="13">scan</text>
    <text x="310" y="182" font-size="10" opacity="0.5">(code)</text>
    <text x="262" y="198" font-size="11">parse( )</text>
    <text x="340" y="198" font-size="10" opacity="0.5">=&gt;</text>
    <text x="262" y="225" font-size="13">async fn</text>
    <text x="345" y="225" font-size="10" opacity="0.5">run()</text>
    <text x="272" y="245" font-size="12">return</text>
    <text x="350" y="245" font-size="10" opacity="0.5">data</text>
    <text x="222" y="254" font-size="10">--&gt;</text>
    <text x="260" y="254" font-size="13">report</text>
    <text x="330" y="254" font-size="10" opacity="0.6">POST</text>
    <text x="275" y="270" font-size="11">debug</text>
    <text x="345" y="270" font-size="10" opacity="0.5">test</text>
    <text x="270" y="286" font-size="12">deploy</text>
    <text x="350" y="286" font-size="10" opacity="0.5">watch</text>
    <text x="265" y="315" font-size="13">agent</text>
    <text x="335" y="315" font-size="10" opacity="0.5">.report</text>
    <text x="275" y="335" font-size="11">analyze</text>
    <text x="360" y="335" font-size="10" opacity="0.5">{ }</text>
    <text x="270" y="355" font-size="12">listen</text>
    <text x="345" y="355" font-size="10" opacity="0.5">:5112</text>
    <text x="275" y="390" font-size="10" opacity="0.4">POST /api/report</text>
    <text x="290" y="415" font-size="10" opacity="0.35">{ agent: reasonix }</text>
    <text x="300" y="440" font-size="9"  opacity="0.3">{ ok: true, issues: [] }</text>
    <text x="370" y="490" font-size="11" fill="#484f58" text-anchor="end" font-weight="normal" opacity="0.5">agent-code-reporter</text>
  </g>
  <line x1="256" y1="48" x2="256" y2="400" stroke="#30363d" stroke-width="1" stroke-dasharray="3,5" opacity="0.25"/>
</svg>
